<svg width="561" height="582" xmlns="http://www.w3.org/2000/svg" xmlns:xlink="http://www.w3.org/1999/xlink">
 <defs>
  <radialGradient id="imagebot_127" spreadMethod="pad" gradientTransform="matrix(233.82817,0,0,233.82817,96.78174,-129.79395)" gradientUnits="userSpaceOnUse" r="1" cy="0" cx="0" fy="0" fx="0">
   <stop stop-color="#e6e6e6" id="imagebot_247" offset="0"/>
   <stop stop-color="#002255" offset="0.44289" id="imagebot_246"/>
   <stop stop-color="#00112b" offset="0.5" id="imagebot_245"/>
   <stop stop-color="#000501" id="imagebot_244" offset="1"/>
  </radialGradient>
  <linearGradient id="imagebot_125">
   <stop stop-color="#000000" offset="0" id="imagebot_239"/>
   <stop stop-color="#1a1a1a" offset="1" id="imagebot_238"/>
  </linearGradient>
  <linearGradient id="imagebot_126">
   <stop stop-color="#000000" id="imagebot_237" offset="0"/>
   <stop stop-color="#333333" id="imagebot_236" offset="1"/>
  </linearGradient>
  <linearGradient id="imagebot_123">
   <stop stop-color="#000000" id="imagebot_235" offset="0"/>
   <stop stop-color="#1a1a1a" id="imagebot_234" offset="1"/>
  </linearGradient>
  <linearGradient id="imagebot_124">
   <stop stop-color="#000000" id="imagebot_233" offset="0"/>
   <stop stop-color="#000000" stop-opacity="0" id="imagebot_232" offset="1"/>
  </linearGradient>
  <linearGradient id="imagebot_132">
   <stop stop-color="#f2f2f2" id="imagebot_230" offset="0"/>
   <stop stop-color="#b3b3b3" id="imagebot_229" offset="1"/>
  </linearGradient>
  <linearGradient id="imagebot_131">
   <stop stop-color="#666666" id="imagebot_227" offset="0"/>
   <stop stop-color="#ffffff" offset="0.5" id="imagebot_226"/>
   <stop stop-color="#666666" id="imagebot_225" offset="1"/>
  </linearGradient>
  <linearGradient id="imagebot_130">
   <stop stop-color="#ffffff" id="imagebot_223" offset="0"/>
   <stop stop-color="#ffffff" stop-opacity="0" id="imagebot_222" offset="1"/>
  </linearGradient>
  <linearGradient id="imagebot_129">
   <stop stop-color="#800000" id="imagebot_220" offset="0"/>
   <stop stop-color="#d40000" offset="0.5" id="imagebot_219"/>
   <stop stop-color="#800000" id="imagebot_218" offset="1"/>
  </linearGradient>
  <linearGradient id="imagebot_128">
   <stop stop-color="#800000" id="imagebot_216" offset="0"/>
   <stop stop-color="#d40000" offset="0.5" id="imagebot_215"/>
   <stop stop-color="#800000" id="imagebot_214" offset="1"/>
  </linearGradient>
  <linearGradient y2="0.5443" x2="-1.08038" y1="0.54193" x1="0.73691" id="imagebot_116" xlink:href="#imagebot_132"/>
  <linearGradient y2="0.5" x2="1" y1="0.54737" x1="0.26821" id="imagebot_114" xlink:href="#imagebot_131"/>
  <linearGradient y2="0.40711" x2="0.01658" y1="0.4033" x1="1.44759" id="imagebot_109" xlink:href="#imagebot_130"/>
  <linearGradient y2="0.5" x2="1" y1="0.5" x1="0" id="imagebot_107" xlink:href="#imagebot_129"/>
  <linearGradient y2="0.50544" x2="1.02158" y1="0.50544" x1="-0.03669" id="imagebot_101" xlink:href="#imagebot_128"/>
  <linearGradient y2="0.5443" x2="-1.08038" y1="0.54193" x1="0.73691" id="imagebot_94" xlink:href="#imagebot_132"/>
  <linearGradient y2="0.5" x2="1" y1="0.54737" x1="0.26821" id="imagebot_92" xlink:href="#imagebot_131"/>
  <linearGradient y2="0.40711" x2="0.01658" y1="0.4033" x1="1.44759" id="imagebot_87" xlink:href="#imagebot_130"/>
  <linearGradient y2="0.5" x2="1" y1="0.5" x1="0" id="imagebot_85" xlink:href="#imagebot_129"/>
  <linearGradient y2="0.50544" x2="1.02158" y1="0.50544" x1="-0.03669" id="imagebot_79" xlink:href="#imagebot_128"/>
  <linearGradient y2="0.5443" x2="-1.08038" y1="0.54193" x1="0.73691" id="imagebot_69" xlink:href="#imagebot_132"/>
  <linearGradient y2="0.5" x2="1" y1="0.54737" x1="0.26821" id="imagebot_67" xlink:href="#imagebot_131"/>
  <linearGradient y2="0.40711" x2="0.01658" y1="0.4033" x1="1.44759" id="imagebot_62" xlink:href="#imagebot_130"/>
  <linearGradient y2="0.5" x2="1" y1="0.5" x1="0" id="imagebot_60" xlink:href="#imagebot_129"/>
  <linearGradient y2="0.50544" x2="1.02158" y1="0.50544" x1="-0.03669" id="imagebot_54" xlink:href="#imagebot_128"/>
  <linearGradient y2="0.5443" x2="-1.08038" y1="0.54193" x1="0.73691" id="imagebot_47" xlink:href="#imagebot_132"/>
  <linearGradient y2="0.5" x2="1" y1="0.54737" x1="0.26821" id="imagebot_45" xlink:href="#imagebot_131"/>
  <linearGradient y2="0.40711" x2="0.01658" y1="0.4033" x1="1.44759" id="imagebot_40" xlink:href="#imagebot_130"/>
  <linearGradient y2="0.5" x2="1" y1="0.5" x1="0" id="imagebot_38" xlink:href="#imagebot_129"/>
  <linearGradient y2="0.50544" x2="1.02158" y1="0.50544" x1="-0.03669" id="imagebot_32" xlink:href="#imagebot_128"/>
  <radialGradient r="1" fy="0.00685" fx="0.03183" cy="0.00685" cx="0.03183" spreadMethod="pad" gradientTransform="matrix(321.41878,0.73890657,-0.7059399,307.07859,316.76077,741.40557)" gradientUnits="userSpaceOnUse" id="imagebot_25" xlink:href="#imagebot_127"/>
  <radialGradient r="9.65291" fy="-176.78447" fx="178.28806" cy="-176.78447" cx="178.28806" gradientTransform="matrix(0.96394926,-0.26608612,0.32645617,1.1826516,64.139797,78.562831)" gradientUnits="userSpaceOnUse" id="imagebot_23" xlink:href="#imagebot_126"/>
  <radialGradient r="9.39747" fy="-144.17438" fx="209.66776" cy="-144.17438" cx="209.66776" gradientTransform="matrix(1,0,0,0.86051382,0,-21.05336)" gradientUnits="userSpaceOnUse" id="imagebot_18" xlink:href="#imagebot_125"/>
  <radialGradient r="9.39747" fy="-150.9351" fx="209.91016" cy="-150.9351" cx="209.91016" gradientTransform="matrix(1,0,0,0.86051382,0,-21.05336)" gradientUnits="userSpaceOnUse" id="imagebot_16" xlink:href="#imagebot_124"/>
  <radialGradient r="9.39747" fy="-150.9351" fx="209.91016" cy="-150.9351" cx="209.91016" gradientTransform="matrix(1,0,0,0.86051382,0,-21.05336)" gradientUnits="userSpaceOnUse" id="imagebot_14" xlink:href="#imagebot_124"/>
  <radialGradient r="9.39747" fy="-150.9351" fx="209.91016" cy="-150.9351" cx="209.91016" gradientTransform="matrix(1,0,0,0.86051382,0,-21.05336)" gradientUnits="userSpaceOnUse" id="imagebot_12" xlink:href="#imagebot_124"/>
  <radialGradient r="10.15627" fy="-147.26044" fx="178.58331" cy="-147.26044" cx="178.58331" gradientTransform="matrix(1,0,0,0.82316463,0,-27.134411)" gradientUnits="userSpaceOnUse" id="imagebot_10" xlink:href="#imagebot_123"/>
 </defs>
 <metadata id="imagebot_122"/>
 <g id="imagebot_2" label="Ebene 1">
  <g label="Ebene 1" transform="matrix(1.72409 0 0 1.72409 782.832 523.895)" id="imagebot_119">
   <g id="imagebot_120">
    <g id="imagebot_121"/>
   </g>
  </g>
  <title>Ebene 1</title>
  <g id="imagebot_250">
   <g label="Ebene 1" transform="matrix(0.427549 -0.0789385 0.0789385 0.427549 -1.15123 39.2774)" id="imagebot_95">
    <path fill="url(#imagebot_116)" d="M291.05649,206.23537C291.05649,223.53105 296.39969,251.48807 302.0567,281.08597C308.16803,313.05692 314.48639,346.11633 314.48639,368.01321C314.48639,426.93661 293.45572,472.40829 273.11688,516.38293C252.86525,560.16797 231.9239,605.44354 231.9239,663.67615C231.9239,778.93414 303.97974,915.51044 304.70758,916.87457C304.70758,916.87457 305.2981,917.98596 305.2981,917.98596C305.2981,917.98596 306.55438,918.05347 306.55438,918.05347C306.91177,918.07306 342.4848,920.01245 356.88333,920.01245C371.27859,920.01245 409.60712,918.07526 409.99283,918.05566C409.99283,918.05566 411.28287,917.99023 411.28287,917.99023C411.28287,917.99023 411.86905,916.83746 411.86905,916.83746C412.56854,915.46027 481.84277,777.77045 481.84277,660.32892C481.84277,598.63586 460.54404,550.10907 439.94482,503.18393C420.75333,459.4621 402.62741,418.16669 402.62741,369.12885C402.62741,350.25113 407.1774,326.54123 411.99326,301.43887C417.53912,272.5394 423.82587,239.78287 423.82587,209.58244C423.82587,155.08484 389.24542,135.66779 356.88333,135.66779C325.17932,135.66779 291.05649,157.75101 291.05649,206.23531L291.05649,206.23537z" id="imagebot_115"/>
    <g id="imagebot_111" transform="matrix(2.2314184,0,0,2.2314184,230.8082,921.12822)">
     <g fill="#666666" id="imagebot_112" transform="translate(0.47369969,0.9158977)">
      <path fill="url(#imagebot_114)" d="M29.75,-10.87598C29.75,-10.87598 48.25,-9.25098 56.5,-9.25098C64.75,-9.25098 84.5,-10.87598 84.5,-10.87598C84.5,-10.87598 81.33301,-3.20898 80.25,-2.37598C79.16699,-1.54297 61.66699,-0.87598 56.5,-0.87598C51.49854,-0.87598 35,-1.54297 34,-2.37598C33,-3.20898 29.75,-10.87598 29.75,-10.87598z" id="imagebot_113"/>
     </g>
    </g>
    <path opacity="0.6" fill="#ffffff" fill-rule="nonzero" d="M338.00931,147.7722C338.00931,147.7722 315.69513,150.00362 313.46371,160.045C311.2323,170.0864 321.27368,180.12778 329.08365,174.54922C336.89359,168.97067 338.00931,147.7722 338.00931,147.7722z" id="imagebot_110"/>
    <path fill="url(#imagebot_109)" d="M356.88333,135.66785C351.68738,135.66785 346.42844,136.24768 341.2634,137.45297C367.86346,143.3111 391.69345,164.35593 391.69345,209.58359C391.69345,239.784 385.41278,272.56274 379.86694,301.46222C375.05106,326.56458 370.495,350.25229 370.495,369.13C370.495,418.16782 388.62396,459.4606 407.81546,503.18246C428.41467,550.1076 449.71033,598.63702 449.71033,660.33008C449.71033,777.77155 380.45486,915.45441 379.75537,916.83167L379.14172,918.00311L377.85864,918.05884C377.58047,918.07312 357.63455,919.11371 341.09604,919.67664C347.17767,919.89435 352.87042,920.01129 356.88333,920.01129C371.27859,920.01129 409.60538,918.07843 409.99109,918.05884L411.27414,918.00311L411.88779,916.83167C412.58731,915.45441 481.84277,777.77155 481.84277,660.33008C481.84277,598.63702 460.54709,550.1076 439.94788,503.18246C420.75638,459.4606 402.62741,418.16782 402.62741,369.13C402.62741,350.25229 407.1835,326.56458 411.99936,301.46222C417.54523,272.56274 423.82587,239.784 423.82587,209.58359C423.82587,155.08598 389.24542,135.66785 356.88333,135.66785z" id="imagebot_108"/>
    <g fill="#550000" id="imagebot_102" transform="matrix(2.5478922,0,0,2.0044069,212.83566,869.90853)">
     <g fill="#550000" id="imagebot_103">
      <g fill="#550000" id="imagebot_104">
       <g fill="#550000" id="imagebot_105">
        <path fill="url(#imagebot_107)" d="M56.34991,-244.25098C64.51414,-244.25098 74.67185,-242.99059 74.67185,-242.99059C74.67185,-242.99059 74.54447,-238.87598 75.011,-235.87598C75.47752,-232.87598 76.8771,-225.87598 76.8771,-225.87598C76.8771,-225.87598 61.01518,-227.12695 56.34991,-227.25146C51.68464,-227.37598 37.92209,-225.62598 37.92209,-225.62598C37.92209,-225.62598 38.62188,-232.12598 39.08841,-235.37598C39.55493,-238.62598 39.63723,-242.26137 39.63723,-242.26137C39.63723,-242.26137 48.88548,-244.25098 56.34991,-244.25098z" id="imagebot_106"/>
       </g>
      </g>
     </g>
    </g>
    <g fill="#800000" id="imagebot_96" transform="matrix(2.4753466,0,0,2.2314184,216.57905,921.12822)">
     <g fill="#800000" id="imagebot_97">
      <g fill="#800000" id="imagebot_98">
       <g fill="#800000" id="imagebot_99">
        <path fill="url(#imagebot_101)" d="M56.5,-279.50049C66.75,-279.50049 79.07197,-277.58188 79.07197,-277.58188L76.35038,-260.82452C76.35038,-260.82452 67,-262.00195 56.49951,-262.00195C48.99072,-262.00195 38.47443,-260.58188 38.47443,-260.58188L36.07765,-277.5304C36.07765,-277.5304 47.25,-279.50049 56.5,-279.50049z" id="imagebot_100"/>
       </g>
      </g>
     </g>
    </g>
   </g>
   <g label="Ebene 1" id="imagebot_73" transform="matrix(0.545872 -0.147747 0.147747 0.545872 -146.645 69.0068)">
    <path fill="url(#imagebot_94)" id="imagebot_93" d="M291.05649,206.23537C291.05649,223.53105 296.39969,251.48807 302.0567,281.08597C308.16803,313.05692 314.48639,346.11633 314.48639,368.01321C314.48639,426.93661 293.45572,472.40829 273.11688,516.38293C252.86525,560.16797 231.9239,605.44354 231.9239,663.67615C231.9239,778.93414 303.97974,915.51044 304.70758,916.87457C304.70758,916.87457 305.2981,917.98596 305.2981,917.98596C305.2981,917.98596 306.55438,918.05347 306.55438,918.05347C306.91177,918.07306 342.4848,920.01245 356.88333,920.01245C371.27859,920.01245 409.60712,918.07526 409.99283,918.05566C409.99283,918.05566 411.28287,917.99023 411.28287,917.99023C411.28287,917.99023 411.86905,916.83746 411.86905,916.83746C412.56854,915.46027 481.84277,777.77045 481.84277,660.32892C481.84277,598.63586 460.54404,550.10907 439.94482,503.18393C420.75333,459.4621 402.62741,418.16669 402.62741,369.12885C402.62741,350.25113 407.1774,326.54123 411.99326,301.43887C417.53912,272.5394 423.82587,239.78287 423.82587,209.58244C423.82587,155.08484 389.24542,135.66779 356.88333,135.66779C325.17932,135.66779 291.05649,157.75101 291.05649,206.23531L291.05649,206.23537z"/>
    <g transform="matrix(2.2314184,0,0,2.2314184,230.8082,921.12822)" id="imagebot_89">
     <g fill="#666666" transform="translate(0.47369969,0.9158977)" id="imagebot_90">
      <path fill="url(#imagebot_92)" id="imagebot_91" d="M29.75,-10.87598C29.75,-10.87598 48.25,-9.25098 56.5,-9.25098C64.75,-9.25098 84.5,-10.87598 84.5,-10.87598C84.5,-10.87598 81.33301,-3.20898 80.25,-2.37598C79.16699,-1.54297 61.66699,-0.87598 56.5,-0.87598C51.49854,-0.87598 35,-1.54297 34,-2.37598C33,-3.20898 29.75,-10.87598 29.75,-10.87598z"/>
     </g>
    </g>
    <path opacity="0.6" fill="#ffffff" fill-rule="nonzero" id="imagebot_88" d="M338.00931,147.7722C338.00931,147.7722 315.69513,150.00362 313.46371,160.045C311.2323,170.0864 321.27368,180.12778 329.08365,174.54922C336.89359,168.97067 338.00931,147.7722 338.00931,147.7722z"/>
    <path fill="url(#imagebot_87)" id="imagebot_86" d="M356.88333,135.66785C351.68738,135.66785 346.42844,136.24768 341.2634,137.45297C367.86346,143.3111 391.69345,164.35593 391.69345,209.58359C391.69345,239.784 385.41278,272.56274 379.86694,301.46222C375.05106,326.56458 370.495,350.25229 370.495,369.13C370.495,418.16782 388.62396,459.4606 407.81546,503.18246C428.41467,550.1076 449.71033,598.63702 449.71033,660.33008C449.71033,777.77155 380.45486,915.45441 379.75537,916.83167L379.14172,918.00311L377.85864,918.05884C377.58047,918.07312 357.63455,919.11371 341.09604,919.67664C347.17767,919.89435 352.87042,920.01129 356.88333,920.01129C371.27859,920.01129 409.60538,918.07843 409.99109,918.05884L411.27414,918.00311L411.88779,916.83167C412.58731,915.45441 481.84277,777.77155 481.84277,660.33008C481.84277,598.63702 460.54709,550.1076 439.94788,503.18246C420.75638,459.4606 402.62741,418.16782 402.62741,369.13C402.62741,350.25229 407.1835,326.56458 411.99936,301.46222C417.54523,272.56274 423.82587,239.784 423.82587,209.58359C423.82587,155.08598 389.24542,135.66785 356.88333,135.66785z"/>
    <g fill="#550000" transform="matrix(2.5478922,0,0,2.0044069,212.83566,869.90853)" id="imagebot_80">
     <g fill="#550000" id="imagebot_81">
      <g fill="#550000" id="imagebot_82">
       <g fill="#550000" id="imagebot_83">
        <path fill="url(#imagebot_85)" id="imagebot_84" d="M56.34991,-244.25098C64.51414,-244.25098 74.67185,-242.99059 74.67185,-242.99059C74.67185,-242.99059 74.54447,-238.87598 75.011,-235.87598C75.47752,-232.87598 76.8771,-225.87598 76.8771,-225.87598C76.8771,-225.87598 61.01518,-227.12695 56.34991,-227.25146C51.68464,-227.37598 37.92209,-225.62598 37.92209,-225.62598C37.92209,-225.62598 38.62188,-232.12598 39.08841,-235.37598C39.55493,-238.62598 39.63723,-242.26137 39.63723,-242.26137C39.63723,-242.26137 48.88548,-244.25098 56.34991,-244.25098z"/>
       </g>
      </g>
     </g>
    </g>
    <g fill="#800000" transform="matrix(2.4753466,0,0,2.2314184,216.57905,921.12822)" id="imagebot_74">
     <g fill="#800000" id="imagebot_75">
      <g fill="#800000" id="imagebot_76">
       <g fill="#800000" id="imagebot_77">
        <path fill="url(#imagebot_79)" id="imagebot_78" d="M56.5,-279.50049C66.75,-279.50049 79.07197,-277.58188 79.07197,-277.58188L76.35038,-260.82452C76.35038,-260.82452 67,-262.00195 56.49951,-262.00195C48.99072,-262.00195 38.47443,-260.58188 38.47443,-260.58188L36.07765,-277.5304C36.07765,-277.5304 47.25,-279.50049 56.5,-279.50049z"/>
       </g>
      </g>
     </g>
    </g>
   </g>
   <path transform="matrix(0.565513 0 0 0.565513 23.7141 8.01777)" label="Ebene 1" fill="none" d="M573.72668,786.66315C573.72668,879.93433 498.11658,955.54523 404.84537,955.54523C311.57428,955.54523 235.96416,879.93433 235.96416,786.66315C235.96416,693.39203 311.57425,617.78186 404.84537,617.78186C498.11658,617.78186 573.72668,693.39203 573.72668,786.66315z" id="imagebot_72"/>
   <path transform="matrix(0.565513 0 0 0.565513 23.7141 8.01777)" label="Ebene 1" fill="none" d="M472.6188,658.00092C471.05392,665.13635 462.44431,669.31189 453.38861,667.3252C444.33289,665.33844 438.26071,657.94537 439.82492,650.80902C441.3898,643.67523 449.99942,639.50226 459.05511,641.4873C468.11081,643.47327 474.18301,650.86713 472.6188,658.00092z" id="imagebot_71"/>
   <path transform="matrix(0.565513 0 0 0.565513 23.7141 8.01777)" label="Ebene 1" fill="none" d="M526.34442,716.49719C523.23041,723.10736 513.9079,725.25909 505.52142,721.3075C497.13501,717.35583 492.86102,708.79602 495.97412,702.18756C499.08813,695.58075 508.41061,693.42902 516.79712,697.38062C525.18353,701.33057 529.45752,709.89209 526.34442,716.49719z" id="imagebot_70"/>
   <g label="Ebene 1" transform="matrix(0.544829 0.151547 -0.151547 0.544829 319.506 -109.063)" id="imagebot_48">
    <path fill="url(#imagebot_69)" d="M291.05649,206.23537C291.05649,223.53105 296.39969,251.48807 302.0567,281.08597C308.16803,313.05692 314.48639,346.11633 314.48639,368.01321C314.48639,426.93661 293.45572,472.40829 273.11688,516.38293C252.86525,560.16797 231.9239,605.44354 231.9239,663.67615C231.9239,778.93414 303.97974,915.51044 304.70758,916.87457C304.70758,916.87457 305.2981,917.98596 305.2981,917.98596C305.2981,917.98596 306.55438,918.05347 306.55438,918.05347C306.91177,918.07306 342.4848,920.01245 356.88333,920.01245C371.27859,920.01245 409.60712,918.07526 409.99283,918.05566C409.99283,918.05566 411.28287,917.99023 411.28287,917.99023C411.28287,917.99023 411.86905,916.83746 411.86905,916.83746C412.56854,915.46027 481.84277,777.77045 481.84277,660.32892C481.84277,598.63586 460.54404,550.10907 439.94482,503.18393C420.75333,459.4621 402.62741,418.16669 402.62741,369.12885C402.62741,350.25113 407.1774,326.54123 411.99326,301.43887C417.53912,272.5394 423.82587,239.78287 423.82587,209.58244C423.82587,155.08484 389.24542,135.66779 356.88333,135.66779C325.17932,135.66779 291.05649,157.75101 291.05649,206.23531L291.05649,206.23537z" id="imagebot_68"/>
    <g id="imagebot_64" transform="matrix(2.2314184,0,0,2.2314184,230.8082,921.12822)">
     <g fill="#666666" id="imagebot_65" transform="translate(0.47369969,0.9158977)">
      <path fill="url(#imagebot_67)" d="M29.75,-10.87598C29.75,-10.87598 48.25,-9.25098 56.5,-9.25098C64.75,-9.25098 84.5,-10.87598 84.5,-10.87598C84.5,-10.87598 81.33301,-3.20898 80.25,-2.37598C79.16699,-1.54297 61.66699,-0.87598 56.5,-0.87598C51.49854,-0.87598 35,-1.54297 34,-2.37598C33,-3.20898 29.75,-10.87598 29.75,-10.87598z" id="imagebot_66"/>
     </g>
    </g>
    <path opacity="0.6" fill="#ffffff" fill-rule="nonzero" d="M338.00931,147.7722C338.00931,147.7722 315.69513,150.00362 313.46371,160.045C311.2323,170.0864 321.27368,180.12778 329.08365,174.54922C336.89359,168.97067 338.00931,147.7722 338.00931,147.7722z" id="imagebot_63"/>
    <path fill="url(#imagebot_62)" d="M356.88333,135.66785C351.68738,135.66785 346.42844,136.24768 341.2634,137.45297C367.86346,143.3111 391.69345,164.35593 391.69345,209.58359C391.69345,239.784 385.41278,272.56274 379.86694,301.46222C375.05106,326.56458 370.495,350.25229 370.495,369.13C370.495,418.16782 388.62396,459.4606 407.81546,503.18246C428.41467,550.1076 449.71033,598.63702 449.71033,660.33008C449.71033,777.77155 380.45486,915.45441 379.75537,916.83167L379.14172,918.00311L377.85864,918.05884C377.58047,918.07312 357.63455,919.11371 341.09604,919.67664C347.17767,919.89435 352.87042,920.01129 356.88333,920.01129C371.27859,920.01129 409.60538,918.07843 409.99109,918.05884L411.27414,918.00311L411.88779,916.83167C412.58731,915.45441 481.84277,777.77155 481.84277,660.33008C481.84277,598.63702 460.54709,550.1076 439.94788,503.18246C420.75638,459.4606 402.62741,418.16782 402.62741,369.13C402.62741,350.25229 407.1835,326.56458 411.99936,301.46222C417.54523,272.56274 423.82587,239.784 423.82587,209.58359C423.82587,155.08598 389.24542,135.66785 356.88333,135.66785z" id="imagebot_61"/>
    <g fill="#550000" id="imagebot_55" transform="matrix(2.5478922,0,0,2.0044069,212.83566,869.90853)">
     <g fill="#550000" id="imagebot_56">
      <g fill="#550000" id="imagebot_57">
       <g fill="#550000" id="imagebot_58">
        <path fill="url(#imagebot_60)" d="M56.34991,-244.25098C64.51414,-244.25098 74.67185,-242.99059 74.67185,-242.99059C74.67185,-242.99059 74.54447,-238.87598 75.011,-235.87598C75.47752,-232.87598 76.8771,-225.87598 76.8771,-225.87598C76.8771,-225.87598 61.01518,-227.12695 56.34991,-227.25146C51.68464,-227.37598 37.92209,-225.62598 37.92209,-225.62598C37.92209,-225.62598 38.62188,-232.12598 39.08841,-235.37598C39.55493,-238.62598 39.63723,-242.26137 39.63723,-242.26137C39.63723,-242.26137 48.88548,-244.25098 56.34991,-244.25098z" id="imagebot_59"/>
       </g>
      </g>
     </g>
    </g>
    <g fill="#800000" id="imagebot_49" transform="matrix(2.4753466,0,0,2.2314184,216.57905,921.12822)">
     <g fill="#800000" id="imagebot_50">
      <g fill="#800000" id="imagebot_51">
       <g fill="#800000" id="imagebot_52">
        <path fill="url(#imagebot_54)" d="M56.5,-279.50049C66.75,-279.50049 79.07197,-277.58188 79.07197,-277.58188L76.35038,-260.82452C76.35038,-260.82452 67,-262.00195 56.49951,-262.00195C48.99072,-262.00195 38.47443,-260.58188 38.47443,-260.58188L36.07765,-277.5304C36.07765,-277.5304 47.25,-279.50049 56.5,-279.50049z" id="imagebot_53"/>
       </g>
      </g>
     </g>
    </g>
   </g>
   <g label="Ebene 1" id="imagebot_26" transform="matrix(0.433909 0.0274188 -0.0274188 0.433909 155.004 7.59133)">
    <path fill="url(#imagebot_47)" id="imagebot_46" d="M291.05649,206.23537C291.05649,223.53105 296.39969,251.48807 302.0567,281.08597C308.16803,313.05692 314.48639,346.11633 314.48639,368.01321C314.48639,426.93661 293.45572,472.40829 273.11688,516.38293C252.86525,560.16797 231.9239,605.44354 231.9239,663.67615C231.9239,778.93414 303.97974,915.51044 304.70758,916.87457C304.70758,916.87457 305.2981,917.98596 305.2981,917.98596C305.2981,917.98596 306.55438,918.05347 306.55438,918.05347C306.91177,918.07306 342.4848,920.01245 356.88333,920.01245C371.27859,920.01245 409.60712,918.07526 409.99283,918.05566C409.99283,918.05566 411.28287,917.99023 411.28287,917.99023C411.28287,917.99023 411.86905,916.83746 411.86905,916.83746C412.56854,915.46027 481.84277,777.77045 481.84277,660.32892C481.84277,598.63586 460.54404,550.10907 439.94482,503.18393C420.75333,459.4621 402.62741,418.16669 402.62741,369.12885C402.62741,350.25113 407.1774,326.54123 411.99326,301.43887C417.53912,272.5394 423.82587,239.78287 423.82587,209.58244C423.82587,155.08484 389.24542,135.66779 356.88333,135.66779C325.17932,135.66779 291.05649,157.75101 291.05649,206.23531L291.05649,206.23537z"/>
    <g transform="matrix(2.2314184,0,0,2.2314184,230.8082,921.12822)" id="imagebot_42">
     <g fill="#666666" transform="translate(0.47369969,0.9158977)" id="imagebot_43">
      <path fill="url(#imagebot_45)" id="imagebot_44" d="M29.75,-10.87598C29.75,-10.87598 48.25,-9.25098 56.5,-9.25098C64.75,-9.25098 84.5,-10.87598 84.5,-10.87598C84.5,-10.87598 81.33301,-3.20898 80.25,-2.37598C79.16699,-1.54297 61.66699,-0.87598 56.5,-0.87598C51.49854,-0.87598 35,-1.54297 34,-2.37598C33,-3.20898 29.75,-10.87598 29.75,-10.87598z"/>
     </g>
    </g>
    <path opacity="0.6" fill="#ffffff" fill-rule="nonzero" id="imagebot_41" d="M338.00931,147.7722C338.00931,147.7722 315.69513,150.00362 313.46371,160.045C311.2323,170.0864 321.27368,180.12778 329.08365,174.54922C336.89359,168.97067 338.00931,147.7722 338.00931,147.7722z"/>
    <path fill="url(#imagebot_40)" id="imagebot_39" d="M356.88333,135.66785C351.68738,135.66785 346.42844,136.24768 341.2634,137.45297C367.86346,143.3111 391.69345,164.35593 391.69345,209.58359C391.69345,239.784 385.41278,272.56274 379.86694,301.46222C375.05106,326.56458 370.495,350.25229 370.495,369.13C370.495,418.16782 388.62396,459.4606 407.81546,503.18246C428.41467,550.1076 449.71033,598.63702 449.71033,660.33008C449.71033,777.77155 380.45486,915.45441 379.75537,916.83167L379.14172,918.00311L377.85864,918.05884C377.58047,918.07312 357.63455,919.11371 341.09604,919.67664C347.17767,919.89435 352.87042,920.01129 356.88333,920.01129C371.27859,920.01129 409.60538,918.07843 409.99109,918.05884L411.27414,918.00311L411.88779,916.83167C412.58731,915.45441 481.84277,777.77155 481.84277,660.33008C481.84277,598.63702 460.54709,550.1076 439.94788,503.18246C420.75638,459.4606 402.62741,418.16782 402.62741,369.13C402.62741,350.25229 407.1835,326.56458 411.99936,301.46222C417.54523,272.56274 423.82587,239.784 423.82587,209.58359C423.82587,155.08598 389.24542,135.66785 356.88333,135.66785z"/>
    <g fill="#550000" transform="matrix(2.5478922,0,0,2.0044069,212.83566,869.90853)" id="imagebot_33">
     <g fill="#550000" id="imagebot_34">
      <g fill="#550000" id="imagebot_35">
       <g fill="#550000" id="imagebot_36">
        <path fill="url(#imagebot_38)" id="imagebot_37" d="M56.34991,-244.25098C64.51414,-244.25098 74.67185,-242.99059 74.67185,-242.99059C74.67185,-242.99059 74.54447,-238.87598 75.011,-235.87598C75.47752,-232.87598 76.8771,-225.87598 76.8771,-225.87598C76.8771,-225.87598 61.01518,-227.12695 56.34991,-227.25146C51.68464,-227.37598 37.92209,-225.62598 37.92209,-225.62598C37.92209,-225.62598 38.62188,-232.12598 39.08841,-235.37598C39.55493,-238.62598 39.63723,-242.26137 39.63723,-242.26137C39.63723,-242.26137 48.88548,-244.25098 56.34991,-244.25098z"/>
       </g>
      </g>
     </g>
    </g>
    <g fill="#800000" transform="matrix(2.4753466,0,0,2.2314184,216.57905,921.12822)" id="imagebot_27">
     <g fill="#800000" id="imagebot_28">
      <g fill="#800000" id="imagebot_29">
       <g fill="#800000" id="imagebot_30">
        <path fill="url(#imagebot_32)" id="imagebot_31" d="M56.5,-279.50049C66.75,-279.50049 79.07197,-277.58188 79.07197,-277.58188L76.35038,-260.82452C76.35038,-260.82452 67,-262.00195 56.49951,-262.00195C48.99072,-262.00195 38.47443,-260.58188 38.47443,-260.58188L36.07765,-277.5304C36.07765,-277.5304 47.25,-279.50049 56.5,-279.50049z"/>
       </g>
      </g>
     </g>
    </g>
   </g>
   <g label="Ebene 1" id="imagebot_5" transform="matrix(0.685596 0 0 0.685596 -4.62118 -106.727)">
    <path fill="url(#imagebot_25)" d="M573.72668,786.66315C573.72668,879.93433 498.11655,955.54523 404.8454,955.54523C311.57428,955.54523 235.96416,879.93433 235.96416,786.66315C235.96416,693.39203 311.57425,617.78186 404.8454,617.78186C498.11655,617.78186 573.72668,693.39203 573.72668,786.66315z" id="imagebot_24"/>
    <g fill="#000000" transform="matrix(1.7240942,0,0,1.7240942,149.25437,969.57033)" id="imagebot_19">
     <g fill="#000000" id="imagebot_20">
      <g fill="#000000" id="imagebot_21">
       <path fill="url(#imagebot_23)" id="imagebot_22" d="M187.55615,-180.71484C186.64844,-176.57617 181.65479,-174.1543 176.40234,-175.30664C171.1499,-176.45898 167.62793,-180.74707 168.53516,-184.88623C169.44287,-189.02393 174.43652,-191.44434 179.68896,-190.29297C184.94141,-189.14111 188.46338,-184.85254 187.55615,-180.71484z"/>
      </g>
     </g>
    </g>
    <g fill="url(#imagebot_12)" transform="matrix(1.7240942,0,0,1.7240942,149.25437,969.57033)" id="imagebot_11">
     <g fill="url(#imagebot_14)" id="imagebot_13">
      <g fill="url(#imagebot_16)" id="imagebot_15">
       <path fill="url(#imagebot_18)" id="imagebot_17" d="M218.71777,-146.78613C216.91162,-142.95215 211.50439,-141.7041 206.64014,-143.99609C201.77588,-146.28809 199.29688,-151.25293 201.10254,-155.08594C202.90869,-158.91797 208.31592,-160.16602 213.18018,-157.87402C218.04443,-155.58301 220.52344,-150.61719 218.71777,-146.78613z"/>
      </g>
     </g>
    </g>
    <g fill="#000000" transform="matrix(1.7240942,0,0,1.7240942,149.25437,969.57033)" id="imagebot_6">
     <g fill="#000000" id="imagebot_7">
      <g fill="#000000" id="imagebot_8">
       <path fill="url(#imagebot_10)" id="imagebot_9" d="M187.89893,-148.67188C186.00586,-144.88086 180.19238,-143.9453 174.91357,-146.58203C169.63525,-149.21777 166.89063,-154.42578 168.7832,-158.21777C170.67529,-162.00781 176.48877,-162.94336 181.76758,-160.30762C187.0459,-157.6709 189.79102,-152.46191 187.89893,-148.67188z"/>
      </g>
     </g>
    </g>
   </g>
   <path transform="matrix(0.565513 0 0 0.565513 23.7141 8.01777)" label="Ebene 1" fill="none" d="M473.20981,713.24597C469.94601,719.78204 459.923,721.39502 450.82181,716.84906C441.7215,712.30481 436.9895,703.32568 440.2525,696.78796C443.51462,690.25354 453.5376,688.64063 462.63882,693.18488C471.73911,697.73083 476.47202,706.71161 473.20981,713.24597z" id="imagebot_4"/>
  </g>
 </g>
</svg>